<svg xmlns="http://www.w3.org/2000/svg" viewBox="0 0 1280 640" width="1280" height="640">
  <defs>
    <linearGradient id="bgGrad" x1="0%" y1="0%" x2="100%" y2="100%">
      <stop offset="0%" style="stop-color:#0d1117;stop-opacity:1" />
      <stop offset="100%" style="stop-color:#161b22;stop-opacity:1" />
    </linearGradient>
    <linearGradient id="accentGrad" x1="0%" y1="0%" x2="100%" y2="0%">
      <stop offset="0%" style="stop-color:#39d353;stop-opacity:1" />
      <stop offset="100%" style="stop-color:#0ea5e9;stop-opacity:1" />
    </linearGradient>
    <linearGradient id="cardGrad" x1="0%" y1="0%" x2="0%" y2="100%">
      <stop offset="0%" style="stop-color:#21262d;stop-opacity:1" />
      <stop offset="100%" style="stop-color:#161b22;stop-opacity:1" />
    </linearGradient>
    <filter id="glow">
      <feGaussianBlur stdDeviation="4" result="coloredBlur"/>
      <feMerge>
        <feMergeNode in="coloredBlur"/>
        <feMergeNode in="SourceGraphic"/>
      </feMerge>
    </filter>
    <filter id="shadow">
      <feDropShadow dx="0" dy="4" stdDeviation="8" flood-color="#000000" flood-opacity="0.5"/>
    </filter>

    <!--
      ======================================================================
      GLOBAL TONE FILTER  (яркость + насыщенность всей картинки)
      ======================================================================
      Применяется ко всему контенту через <g filter="url(#tone)"> ниже.
      Чтобы выключить тонировку — удали filter="url(#tone)" у этой <g>.

      Состоит из двух матриц по очереди:

      1) feColorMatrix type="saturate"  — НАСЫЩЕННОСТЬ
         values="1.0"  — оригинал
         values="0"    — полностью ч/б
         values="0.5"  — приглушённые цвета
         values="1.5"  — сочнее
         values="2.0"  — кислотные цвета

      2) feColorMatrix type="matrix"    — ЯРКОСТЬ
         Диагональ R/G/B = яркость (3 одинаковых числа).
         "1 0 0 0 0   0 1 0 0 0   0 0 1 0 0   0 0 0 1 0"   — оригинал
         "0.8 0 0 0 0 0 0.8 0 0 0 0 0 0.8 0 0 0 0 0 1 0"   — темнее на 20%
         "1.2 0 0 0 0 0 1.2 0 0 0 0 0 1.2 0 0 0 0 0 1 0"   — ярче на 20%
         "1.4 0 0 0 0 0 1.4 0 0 0 0 0 1.4 0 0 0 0 0 1 0"   — ярче на 40%

         Хочешь добавить КОНТРАСТ — последний столбец каждой строки сдвигает
         «нулевую» точку. Пример (contrast +20%, яркость без изменений):
         values="1.2 0 0 0 -0.1   0 1.2 0 0 -0.1   0 0 1.2 0 -0.1   0 0 0 1 0"
      ======================================================================
    -->
    <filter id="tone" x="0%" y="0%" width="100%" height="100%">
      <!-- Saturation: 1 = normal, 0 = grayscale, >1 = more vivid -->
      <feColorMatrix type="saturate" values="0.90"/>
      <!-- Brightness: diagonal R/G/B (1.0 = normal) -->
      <feColorMatrix type="matrix" values="
  1.00 0 0 0 0
  0 1.00 0 0 0
  0 0 1.00 0 0
  0 0 0 1 0"/>
    </filter>

    <!-- Clip-path safety net for text columns (must not overlap terminal at X=950) -->
    <clipPath id="titleClip">
      <rect x="220" y="200" width="710" height="100"/>
    </clipPath>
    <clipPath id="installerClip">
      <rect x="220" y="295" width="710" height="100"/>
    </clipPath>
    <clipPath id="subtitleClip">
      <rect x="220" y="380" width="710" height="55"/>
    </clipPath>
  </defs>

  <!-- ============ GLOBAL TONE WRAPPER ============
       Всё внутри <g filter="url(#tone)"> ... </g> подкрашивается фильтром #tone.
       Чтобы выключить тонировку — убери filter="url(#tone)" у этого <g>.
  -->
  <g filter="url(#tone)">

  <!-- Background -->
  <rect width="1280" height="640" fill="url(#bgGrad)"/>

  <!-- Grid pattern overlay -->
  <pattern id="grid" width="40" height="40" patternUnits="userSpaceOnUse">
    <path d="M 40 0 L 0 0 0 40" fill="none" stroke="#21262d" stroke-width="0.5"/>
  </pattern>
  <rect width="1280" height="640" fill="url(#grid)" opacity="0.4"/>

  <!-- Accent glow blob left -->
  <ellipse cx="200" cy="320" rx="280" ry="200" fill="#39d353" opacity="0.04"/>
  <!-- Accent glow blob right -->
  <ellipse cx="1080" cy="320" rx="280" ry="200" fill="#0ea5e9" opacity="0.04"/>

  <!-- Top accent bar -->
  <rect x="0" y="0" width="1280" height="4" fill="url(#accentGrad)"/>

  <!-- Bottom accent bar -->
  <rect x="0" y="636" width="1280" height="4" fill="url(#accentGrad)"/>

  <!-- Left vertical accent -->
  <rect x="80" y="80" width="3" height="480" fill="url(#accentGrad)" opacity="0.6"/>

  <!-- Neutral installer icon: package / box (centered at X=140, Y=240) -->
  <g transform="translate(100, 200)" filter="url(#shadow)">
    <!-- Box body -->
    <rect x="0" y="16" width="80" height="64" fill="#21262d" stroke="#30363d" stroke-width="2" rx="5"/>
    <!-- Box top (lid) -->
    <polygon points="0,16 40,0 80,16 40,32" fill="#2d333b" stroke="#30363d" stroke-width="2"/>
    <!-- Tape across top -->
    <rect x="34" y="0" width="12" height="32" fill="#39d353" opacity="0.85"/>
    <!-- Front seam -->
    <line x1="40" y1="32" x2="40" y2="80" stroke="#30363d" stroke-width="2"/>
    <!-- Download arrow on the box -->
    <g transform="translate(40, 56)">
      <line x1="0" y1="-12" x2="0" y2="12" stroke="url(#accentGrad)" stroke-width="4" stroke-linecap="round"/>
      <polyline points="-9,3 0,12 9,3" fill="none" stroke="url(#accentGrad)" stroke-width="4" stroke-linecap="round" stroke-linejoin="round"/>
    </g>
  </g>

  <!-- Neutral gear icon below box (centered at X=140, Y=380) -->
  <g transform="translate(140, 380)" filter="url(#shadow)">
    <g fill="#30363d" stroke="#484f58" stroke-width="1.5">
      <!-- Gear teeth approximated by rotated rectangles -->
      <rect x="-4" y="-34" width="8" height="14" rx="1"/>
      <rect x="-4" y="-34" width="8" height="14" rx="1" transform="rotate(45)"/>
      <rect x="-4" y="-34" width="8" height="14" rx="1" transform="rotate(90)"/>
      <rect x="-4" y="-34" width="8" height="14" rx="1" transform="rotate(135)"/>
      <rect x="-4" y="-34" width="8" height="14" rx="1" transform="rotate(180)"/>
      <rect x="-4" y="-34" width="8" height="14" rx="1" transform="rotate(225)"/>
      <rect x="-4" y="-34" width="8" height="14" rx="1" transform="rotate(270)"/>
      <rect x="-4" y="-34" width="8" height="14" rx="1" transform="rotate(315)"/>
    </g>
    <circle cx="0" cy="0" r="24" fill="#21262d" stroke="#484f58" stroke-width="2"/>
    <circle cx="0" cy="0" r="9" fill="#0d1117" stroke="#484f58" stroke-width="2"/>
  </g>

  <!--
    Adaptive text strategy (fits 35+ chars guaranteed):
    - Text column: X=220..930 (710px wide). Terminal starts at X=950.
    - Main title uses textLength="710" lengthAdjust="spacingAndGlyphs" so ANY string
      (1..40 chars) fills the same visual width — short text gets spaced out,
      long text gets condensed proportionally. Always fits.
    - clip-path is a hard safety net.
  -->

  <!-- Main title (project name) -->
  <g clip-path="url(#titleClip)">
    <text id="projectName"
          x="220" y="278"
          font-family="'Segoe UI', 'Helvetica Neue', Arial, sans-serif"
          font-size="64"
          font-weight="700"
          letter-spacing="-1.5"
          fill="#ffffff"
          filter="url(#glow)"
          textLength="710"
          lengthAdjust="spacingAndGlyphs">ocenaudio-3140-pro-edition</text>
  </g>

  <!-- Gradient accent on "Installer" -->
  <g clip-path="url(#installerClip)">
    <text x="220" y="358"
          font-family="'Segoe UI', 'Helvetica Neue', Arial, sans-serif"
          font-size="64"
          font-weight="700"
          letter-spacing="-1.5"
          fill="url(#accentGrad)"
          filter="url(#glow)">Installer</text>
  </g>

  <!-- Subtitle -->
  <g clip-path="url(#subtitleClip)">
    <text x="222" y="405"
          font-family="'Segoe UI', 'Helvetica Neue', Arial, sans-serif"
          font-size="22"
          font-weight="400"
          fill="#8b949e"
          letter-spacing="0.5">One-click installer</text>
  </g>

  <!-- Divider line -->
  <line x1="220" y1="445" x2="900" y2="445" stroke="#30363d" stroke-width="1"/>

  <!-- Feature badges -->
  <!-- Badge 1: Windows + macOS -->
  <g transform="translate(222, 465)">
    <rect x="0" y="0" width="200" height="36" fill="#21262d" rx="18" stroke="#30363d" stroke-width="1"/>
    <!-- Windows logo (4 squares), bbox 13x13, centered at Y=18 -->
    <g transform="translate(16, 11.5)">
      <rect x="0" y="0" width="6" height="6" fill="#0078d4"/>
      <rect x="7" y="0" width="6" height="6" fill="#0078d4"/>
      <rect x="0" y="7" width="6" height="6" fill="#0078d4"/>
      <rect x="7" y="7" width="6" height="6" fill="#0078d4"/>
    </g>
    <text x="36" y="23" font-family="'Segoe UI', Arial, sans-serif" font-size="14" fill="#e6edf3" font-weight="500">Windows</text>
    <!-- separator -->
    <text x="104" y="23" text-anchor="middle" font-family="'Segoe UI', Arial, sans-serif" font-size="14" fill="#484f58" font-weight="400">+</text>
    <!-- Apple logo (simplified), source bbox ~1.4..13.7 X 2.6..15.1, centered at Y=18 -->
    <g transform="translate(112.6, 9.55)" fill="#e6edf3">
      <path d="M11.6 11.2c0-2 1.6-2.9 1.7-3-0.9-1.3-2.3-1.5-2.8-1.5-1.2-0.1-2.3 0.7-2.9 0.7-0.6 0-1.5-0.7-2.5-0.7-1.3 0-2.5 0.7-3.2 1.9-1.4 2.4-0.3 5.9 1 7.9 0.7 1 1.5 2 2.5 2 1 0 1.4-0.6 2.6-0.6 1.2 0 1.5 0.6 2.6 0.6 1.1 0 1.7-1 2.4-2 0.8-1.1 1.1-2.2 1.1-2.3-0.1 0-2.1-0.8-2.1-3z"/>
      <path d="M9.5 5c0.5-0.6 0.9-1.5 0.8-2.4-0.8 0-1.7 0.5-2.2 1.2-0.5 0.5-0.9 1.5-0.8 2.3 0.9 0.1 1.7-0.5 2.2-1.1z"/>
    </g>
    <text x="134" y="23" font-family="'Segoe UI', Arial, sans-serif" font-size="14" fill="#e6edf3" font-weight="500">macOS</text>
  </g>

  <!-- Badge 2: MIT License -->
  <g transform="translate(434, 465)">
    <rect x="0" y="0" width="120" height="36" fill="#21262d" rx="18" stroke="#30363d" stroke-width="1"/>
    <text x="16" y="23" font-family="'Segoe UI', Arial, sans-serif" font-size="14" fill="#39d353" font-weight="600">MIT</text>
    <text x="46" y="23" font-family="'Segoe UI', Arial, sans-serif" font-size="14" fill="#e6edf3" font-weight="400">License</text>
  </g>

  <!-- Badge 3: Auto-Update -->
  <g transform="translate(566, 465)">
    <rect x="0" y="0" width="160" height="36" fill="#21262d" rx="18" stroke="#30363d" stroke-width="1"/>
    <text x="16" y="23" font-family="'Segoe UI', Arial, sans-serif" font-size="14" fill="#0ea5e9" font-weight="500">Auto-Update CI</text>
  </g>

  <!-- Badge 4: Open Source -->
  <g transform="translate(738, 465)">
    <rect x="0" y="0" width="140" height="36" fill="#21262d" rx="18" stroke="#30363d" stroke-width="1"/>
    <text x="16" y="23" font-family="'Segoe UI', Arial, sans-serif" font-size="14" fill="#f78166" font-weight="500">Open Source</text>
  </g>

  <!-- Right panel: terminal-style card -->
  <g transform="translate(950, 120)" filter="url(#shadow)">
    <rect x="0" y="0" width="260" height="400" fill="url(#cardGrad)" rx="12" stroke="#30363d" stroke-width="1"/>
    <!-- Terminal top bar -->
    <rect x="0" y="0" width="260" height="36" fill="#21262d" rx="12"/>
    <rect x="0" y="24" width="260" height="12" fill="#21262d"/>
    <!-- Traffic lights -->
    <circle cx="20" cy="18" r="6" fill="#ff5f56"/>
    <circle cx="40" cy="18" r="6" fill="#ffbd2e"/>
    <circle cx="60" cy="18" r="6" fill="#27c93f"/>
    <!-- Terminal title -->
    <text x="130" y="23" text-anchor="middle" font-family="'Courier New', monospace" font-size="12" fill="#8b949e">install.sh</text>
    <!-- Terminal content -->
    <text x="16" y="68" font-family="'Courier New', monospace" font-size="13" fill="#39d353">$ ./install.sh</text>
    <text x="16" y="94" font-family="'Courier New', monospace" font-size="12" fill="#8b949e">[INFO] Detecting OS...</text>
    <text x="16" y="116" font-family="'Courier New', monospace" font-size="12" fill="#39d353">[OK]   Windows / macOS</text>
    <text x="16" y="138" font-family="'Courier New', monospace" font-size="12" fill="#8b949e">[INFO] Resolving target...</text>
    <text x="16" y="160" font-family="'Courier New', monospace" font-size="12" fill="#39d353">[OK]   Target located</text>
    <text x="16" y="182" font-family="'Courier New', monospace" font-size="12" fill="#8b949e">[INFO] Downloading...</text>
    <!-- Progress bar -->
    <rect x="16" y="196" width="228" height="8" fill="#30363d" rx="4"/>
    <rect x="16" y="196" width="200" height="8" fill="url(#accentGrad)" rx="4"/>
    <text x="16" y="222" font-family="'Courier New', monospace" font-size="12" fill="#8b949e">[INFO] Installing files...</text>
    <text x="16" y="244" font-family="'Courier New', monospace" font-size="12" fill="#39d353">[OK]   Files copied</text>
    <text x="16" y="266" font-family="'Courier New', monospace" font-size="12" fill="#39d353">[OK]   Config applied</text>
    <text x="16" y="288" font-family="'Courier New', monospace" font-size="12" fill="#8b949e">----------------------------</text>
    <text x="16" y="314" font-family="'Courier New', monospace" font-size="14" fill="#ffffff" font-weight="bold">Installation complete!</text>
    <text x="16" y="336" font-family="'Courier New', monospace" font-size="12" fill="#8b949e">Ready to launch.</text>
    <!-- Blinking cursor -->
    <rect x="16" y="358" width="10" height="16" fill="#39d353" opacity="0.9">
      <animate attributeName="opacity" values="0.9;0;0.9" dur="1.2s" repeatCount="indefinite"/>
    </rect>
  </g>

  <!-- GitHub-style URL hint at bottom -->
  <text x="640" y="610"
        text-anchor="middle"
        font-family="'Segoe UI', Arial, sans-serif"
        font-size="16"
        fill="#30363d"
        letter-spacing="1">github.com / ocenaudio-3140-pro-edition</text>

  </g>
  <!-- ============ /GLOBAL TONE WRAPPER ============ -->
</svg>
